{
	"asset":{
		"generator":"Khronos glTF Blender I/O v3.6.27",
		"version":"2.0"
	},
	"extensionsUsed":[
		"KHR_materials_transmission",
		"KHR_materials_ior"
	],
	"scene":0,
	"scenes":[
		{
			"name":"Scene",
			"nodes":[
				0,
				1
			]
		}
	],
	"nodes":[
		{
			"mesh":0,
			"name":"Cylinder"
		},
		{
			"mesh":1,
			"name":"Cone",
			"rotation":[
				0,
				0,
				0.7071068286895752,
				0.7071068286895752
			],
			"scale":[
				1.3276267051696777,
				1.990565299987793,
				1.990565299987793
			],
			"translation":[
				1.1828632354736328,
				1.3361971378326416,
				0
			]
		}
	],
	"materials":[
		{
			"doubleSided":true,
			"extensions":{
				"KHR_materials_transmission":{
					"transmissionFactor":0.5795454382896423
				},
				"KHR_materials_ior":{
					"ior":1.4500000476837158
				}
			},
			"name":"Material.001",
			"pbrMetallicRoughness":{
				"baseColorFactor":[
					0.035974014550447464,
					0.2980498671531677,
					0.8000000715255737,
					0.34558820724487305
				],
				"metallicFactor":0,
				"roughnessFactor":0.030516445636749268
			}
		}
	],
	"meshes":[
		{
			"name":"Cylinder",
			"primitives":[
				{
					"attributes":{
						"POSITION":0,
						"NORMAL":1,
						"TEXCOORD_0":2
					},
					"indices":3
				}
			]
		},
		{
			"name":"Cone",
			"primitives":[
				{
					"attributes":{
						"POSITION":4,
						"NORMAL":5,
						"TEXCOORD_0":6
					},
					"indices":7,
					"material":0
				}
			]
		}
	],
	"accessors":[
		{
			"bufferView":0,
			"componentType":5126,
			"count":2240,
			"max":[
				1,
				2.3837780952453613,
				1
			],
			"min":[
				-1,
				-1,
				-1
			],
			"type":"VEC3"
		},
		{
			"bufferView":1,
			"componentType":5126,
			"count":2240,
			"type":"VEC3"
		},
		{
			"bufferView":2,
			"componentType":5126,
			"count":2240,
			"type":"VEC2"
		},
		{
			"bufferView":3,
			"componentType":5123,
			"count":3444,
			"type":"SCALAR"
		},
		{
			"bufferView":4,
			"componentType":5126,
			"count":128,
			"max":[
				1,
				1,
				1
			],
			"min":[
				-1,
				-1,
				-1
			],
			"type":"VEC3"
		},
		{
			"bufferView":5,
			"componentType":5126,
			"count":128,
			"type":"VEC3"
		},
		{
			"bufferView":6,
			"componentType":5126,
			"count":128,
			"type":"VEC2"
		},
		{
			"bufferView":7,
			"componentType":5123,
			"count":186,
			"type":"SCALAR"
		}
	],
	"bufferViews":[
		{
			"buffer":0,
			"byteLength":26880,
			"byteOffset":0,
			"target":34962
		},
		{
			"buffer":0,
			"byteLength":26880,
			"byteOffset":26880,
			"target":34962
		},
		{
			"buffer":0,
			"byteLength":17920,
			"byteOffset":53760,
			"target":34962
		},
		{
			"buffer":0,
			"byteLength":6888,
			"byteOffset":71680,
			"target":34963
		},
		{
			"buffer":0,
			"byteLength":1536,
			"byteOffset":78568,
			"target":34962
		},
		{
			"buffer":0,
			"byteLength":1536,
			"byteOffset":80104,
			"target":34962
		},
		{
			"buffer":0,
			"byteLength":1024,
			"byteOffset":81640,
			"target":34962
		},
		{
			"buffer":0,
			"byteLength":372,
			"byteOffset":82664,
			"target":34963
		}
	],
	"buffers":[
		{
			"byteLength":83036,
			"uri":"human_representation.bin"
		}
	]
}
